<svg xmlns="http://www.w3.org/2000/svg"  viewBox="0 0 80 80" width="144px" height="144px"><path fill="#8bb7f0" d="M40,77.5c-1.56,0-3.006-0.651-4.072-1.834L35.779,75.5H6c-1.93,0-3.5-1.57-3.5-3.5V38 c0-1.93,1.57-3.5,3.5-3.5h68c1.93,0,3.5,1.57,3.5,3.5v34c0,1.93-1.57,3.5-3.5,3.5H44.221l-0.148,0.166 C43.006,76.849,41.56,77.5,40,77.5z"/><path fill="#4e7ab5" d="M74,35c1.654,0,3,1.346,3,3v34c0,1.654-1.346,3-3,3H44.443h-0.445L43.7,75.331 C42.73,76.407,41.416,77,40,77s-2.73-0.593-3.7-1.669L36.002,75h-0.445H6c-1.654,0-3-1.346-3-3V38c0-1.654,1.346-3,3-3H74 M74,34H6 c-2.209,0-4,1.791-4,4v34c0,2.209,1.791,4,4,4h29.557c1.098,1.219,2.673,2,4.443,2s3.345-0.781,4.443-2H74c2.209,0,4-1.791,4-4V38 C78,35.791,76.209,34,74,34L74,34z"/><path fill="#fff" d="M40.009,72.429c-1.383-1.113-7.017-5.083-17.009-5.083c-9.044,0-14.518,3.252-16.5,4.695V29.462 C7.498,28.649,13.076,24.5,23,24.5c10.947,0,16.606,5.049,16.662,5.1l0.336,0.307l0.338-0.305C40.393,29.55,46.101,24.5,57,24.5 c9.904,0,15.497,4.148,16.5,4.963V72.07c-2.022-1.42-7.676-4.724-16.5-4.724C47.308,67.346,41.439,71.333,40.009,72.429z"/><path fill="#788b9c" d="M57,25c9.23,0,14.661,3.676,16,4.706v41.433c-2.556-1.612-8.008-4.293-16-4.293 c-9.241,0-15.087,3.585-16.985,4.956c-1.844-1.39-7.501-4.956-17.015-4.956c-8.164,0-13.488,2.626-16,4.249V29.704 C8.332,28.673,13.732,25,23,25c10.726,0,16.271,4.92,16.324,4.968l0.672,0.612l0.675-0.608C40.726,29.923,46.319,25,57,25 M57,24 c-11.248,0-17,5.231-17,5.231S34.297,24,23,24S6,29.231,6,29.231v43.846c0,0,5.691-5.231,17-5.231s17,5.231,17,5.231 s6.06-5.231,17-5.231s17,5.231,17,5.231V29.231C74,29.231,68.248,24,57,24L57,24z"/><path fill="#e1ebf2" d="M73,71.139c-2.556-1.612-8.008-4.293-16-4.293c-9.241,0-15.087,3.585-16.985,4.956l-0.02-41.222	l0.675-0.608C40.726,29.923,46.319,25,57,25c9.23,0,14.661,3.676,16,4.706V71.139z"/><g><path fill="#f78f8f" d="M40 10.973L2.5 23.473 2.5 15.027 40 2.527 77.5 15.027 77.5 23.473z"/><path fill="#c74343" d="M40,3.054l37,12.333v7.392L40.316,10.551L40,10.446l-0.316,0.105L3,22.779v-7.392L40,3.054 M40,2 L2,14.667v9.5L40,11.5l38,12.667v-9.5L40,2L40,2z"/></g></svg>