<svg xmlns="http://www.w3.org/2000/svg"  viewBox="0 0 100 100" width="144px" height="144px"><path fill="#f15b6c" d="M19,42h-5c-1.105,0-2-0.895-2-2v-2c0-1.105,0.895-2,2-2h7L19,42z"/><path fill="#f15b6c" d="M81,42h5c1.105,0,2-0.895,2-2v-2c0-1.105-0.895-2-2-2h-7L81,42z"/><path fill="#f15b6c" d="M80,40l4.05,8.1c0.625,1.25,0.95,2.628,0.95,4.025V64H15V52.125c0-1.397,0.325-2.775,0.95-4.025	L20,40H80z"/><path fill="#c7dff1" d="M80,40H20l2.528-18.54c0.27-1.982,1.963-3.46,3.963-3.46h47.017c2,0,3.693,1.478,3.963,3.46L80,40z"/><path fill="#565fa1" d="M62.5,58.5h-25c-2.209,0-4-1.791-4-4v0c0-2.209,1.791-4,4-4h25c2.209,0,4,1.791,4,4v0	C66.5,56.709,64.709,58.5,62.5,58.5z"/><path fill="#565fa1" d="M22,82h-5c-1.105,0-2-0.895-2-2v-7h9v7C24,81.105,23.105,82,22,82z"/><path fill="#565fa1" d="M83,82h-5c-1.105,0-2-0.895-2-2v-7h9v7C85,81.105,84.105,82,83,82z"/><path fill="#fff" d="M16,58.5c-0.552,0-1-0.448-1-1v-6c0-0.552,0.448-1,1-1h10.5c1.105,0,2,0.895,2,2v4	c0,1.105-0.895,2-2,2H16z"/><path fill="#fff" d="M84.5,58.5h-11c-1.105,0-2-0.895-2-2v-4c0-1.105,0.895-2,2-2h11c0.552,0,1,0.448,1,1v6	C85.5,58.052,85.052,58.5,84.5,58.5z"/><path fill="#f9e65c" d="M20.5,58.5h-5c-0.552,0-1-0.448-1-1v-6c0-0.552,0.448-1,1-1h5V58.5z"/><path fill="#f9e65c" d="M84.5,58.5h-5v-8h5c0.552,0,1,0.448,1,1v6C85.5,58.052,85.052,58.5,84.5,58.5z"/><path fill="#565fa1" d="M53,22.5c-0.526,0-5.474,0-6,0c-0.828,0-1.5,0.672-1.5,1.5s0.672,1.5,1.5,1.5c0.526,0,5.474,0,6,0	c0.828,0,1.5-0.672,1.5-1.5S53.828,22.5,53,22.5z"/><path fill="#1f212b" d="M19,43h-5c-1.654,0-3-1.346-3-3v-2c0-1.654,1.346-3,3-3h7v2h-7c-0.552,0-1,0.448-1,1v2	c0,0.552,0.448,1,1,1h5V43z"/><path fill="#1f212b" d="M86,43h-5v-2h5c0.552,0,1-0.448,1-1v-2c0-0.552-0.448-1-1-1h-7v-2h7c1.654,0,3,1.346,3,3v2	C89,41.654,87.654,43,86,43z"/><path fill="#1f212b" d="M80,41H20c-0.289,0-0.563-0.125-0.753-0.343c-0.19-0.217-0.277-0.506-0.238-0.792l2.528-18.54	C21.874,18.859,24.004,17,26.491,17h47.018c2.487,0,4.617,1.859,4.954,4.325l2.528,18.54c0.039,0.286-0.048,0.575-0.238,0.792	C80.563,40.875,80.289,41,80,41z M21.146,39h57.709L76.48,21.595C76.279,20.115,75.001,19,73.509,19H26.491	c-1.492,0-2.771,1.115-2.972,2.595L21.146,39z"/><path fill="#1f212b" d="M62.5,59h-25c-2.481,0-4.5-2.019-4.5-4.5s2.019-4.5,4.5-4.5h25c2.481,0,4.5,2.019,4.5,4.5	S64.981,59,62.5,59z M37.5,51c-1.93,0-3.5,1.57-3.5,3.5s1.57,3.5,3.5,3.5h25c1.93,0,3.5-1.57,3.5-3.5S64.43,51,62.5,51H37.5z"/><path fill="#1f212b" d="M62.5,59h-25c-2.481,0-4.5-2.019-4.5-4.5s2.019-4.5,4.5-4.5h25c2.481,0,4.5,2.019,4.5,4.5	S64.981,59,62.5,59z M37.5,51c-1.93,0-3.5,1.57-3.5,3.5s1.57,3.5,3.5,3.5h25c1.93,0,3.5-1.57,3.5-3.5S64.43,51,62.5,51H37.5z"/><rect width="1" height="7.125" x="36" y="50.875" fill="#1f212b"/><rect width="1" height="8" x="42" y="50.5" fill="#1f212b"/><rect width="1" height="8" x="39" y="50.5" fill="#1f212b"/><path fill="#1f212b" d="M45.5,59c-0.276,0-0.5-0.224-0.5-0.5v-2c0-0.276,0.224-0.5,0.5-0.5s0.5,0.224,0.5,0.5v2	C46,58.776,45.776,59,45.5,59z"/><path fill="#1f212b" d="M45.5,55c-0.276,0-0.5-0.224-0.5-0.5v-4c0-0.276,0.224-0.5,0.5-0.5s0.5,0.224,0.5,0.5v4	C46,54.776,45.776,55,45.5,55z"/><rect width="1" height="8" x="48" y="50.5" fill="#1f212b"/><path fill="#1f212b" d="M51.5,59c-0.276,0-0.5-0.224-0.5-0.5v-4c0-0.276,0.224-0.5,0.5-0.5s0.5,0.224,0.5,0.5v4	C52,58.776,51.776,59,51.5,59z"/><path fill="#1f212b" d="M51.5,53c-0.276,0-0.5-0.224-0.5-0.5v-2c0-0.276,0.224-0.5,0.5-0.5s0.5,0.224,0.5,0.5v2	C52,52.776,51.776,53,51.5,53z"/><rect width="1" height="8" x="54" y="50.5" fill="#1f212b"/><rect width="1" height="8" x="57" y="50.5" fill="#1f212b"/><rect width="1" height="8" x="60" y="50.5" fill="#1f212b"/><path fill="#1f212b" d="M63.5,57c-0.276,0-0.5-0.224-0.5-0.5v-5.625c0-0.276,0.224-0.5,0.5-0.5s0.5,0.224,0.5,0.5V56.5	C64,56.776,63.776,57,63.5,57z"/><path fill="#b3b2c3" d="M85,73H14c-1.105,0-1-0.895-1-2v-5c0-1.105-0.105-2,1-2h72c1.105,0,1,0.895,1,2v5	C87,72.105,86.105,73,85,73z"/><path fill="#1f212b" d="M85,74H15c-1.654,0-3-1.346-3-3v-5c0-1.654,1.346-3,3-3h70c1.654,0,3,1.346,3,3v5	C88,72.654,86.654,74,85,74z M15,65c-0.552,0-1,0.448-1,1v5c0,0.552,0.448,1,1,1h70c0.552,0,1-0.448,1-1v-5c0-0.552-0.448-1-1-1H15z"/><path fill="#1f212b" d="M22,83h-5c-1.654,0-3-1.346-3-3v-7c0-0.553,0.447-1,1-1h9c0.553,0,1,0.447,1,1v7	C25,81.654,23.654,83,22,83z M16,74v6c0,0.552,0.448,1,1,1h5c0.552,0,1-0.448,1-1v-6H16z"/><path fill="#1f212b" d="M83,83h-5c-1.654,0-3-1.346-3-3v-7c0-0.553,0.447-1,1-1h9c0.553,0,1,0.447,1,1v7	C86,81.654,84.654,83,83,83z M77,74v6c0,0.552,0.448,1,1,1h5c0.552,0,1-0.448,1-1v-6H77z"/><path fill="#1f212b" d="M26.5,59H16c-0.827,0-1.5-0.673-1.5-1.5v-6c0-0.827,0.673-1.5,1.5-1.5h10.5	c1.379,0,2.5,1.121,2.5,2.5v4C29,57.879,27.879,59,26.5,59z M16,51c-0.275,0-0.5,0.225-0.5,0.5v6c0,0.275,0.225,0.5,0.5,0.5h10.5	c0.827,0,1.5-0.673,1.5-1.5v-4c0-0.827-0.673-1.5-1.5-1.5H16z"/><path fill="#1f212b" d="M84.5,59h-11c-1.379,0-2.5-1.121-2.5-2.5v-4c0-1.379,1.121-2.5,2.5-2.5h11c0.827,0,1.5,0.673,1.5,1.5	v6C86,58.327,85.327,59,84.5,59z M73.5,51c-0.827,0-1.5,0.673-1.5,1.5v4c0,0.827,0.673,1.5,1.5,1.5h11c0.275,0,0.5-0.225,0.5-0.5v-6	c0-0.275-0.225-0.5-0.5-0.5H73.5z"/><path fill="#1f212b" d="M73,40h-2c0-3.859-3.141-7-7-7s-7,3.141-7,7h-2c0-4.963,4.037-9,9-9S73,35.037,73,40z"/><path fill="#1f212b" d="M53,26h-6c-1.103,0-2-0.897-2-2s0.897-2,2-2h6c1.103,0,2,0.897,2,2S54.103,26,53,26z M47,23	c-0.552,0-1,0.448-1,1s0.448,1,1,1h6c0.552,0,1-0.448,1-1s-0.448-1-1-1H47z"/><path fill="#1f212b" d="M20.5,59h-5c-0.827,0-1.5-0.673-1.5-1.5v-6c0-0.827,0.673-1.5,1.5-1.5h5c0.276,0,0.5,0.224,0.5,0.5v8	C21,58.776,20.776,59,20.5,59z M15.5,51c-0.275,0-0.5,0.225-0.5,0.5v6c0,0.275,0.225,0.5,0.5,0.5H20v-7H15.5z"/><path fill="#1f212b" d="M84.5,59h-5c-0.276,0-0.5-0.224-0.5-0.5v-8c0-0.276,0.224-0.5,0.5-0.5h5c0.827,0,1.5,0.673,1.5,1.5v6	C86,58.327,85.327,59,84.5,59z M80,58h4.5c0.275,0,0.5-0.225,0.5-0.5v-6c0-0.275-0.225-0.5-0.5-0.5H80V58z"/><path fill="#1f212b" d="M20.5,59h-5c-0.827,0-1.5-0.673-1.5-1.5v-6c0-0.827,0.673-1.5,1.5-1.5h5c0.276,0,0.5,0.224,0.5,0.5v8	C21,58.776,20.776,59,20.5,59z M15.5,51c-0.275,0-0.5,0.225-0.5,0.5v6c0,0.275,0.225,0.5,0.5,0.5H20v-7H15.5z"/><path fill="#1f212b" d="M84.5,59h-5c-0.276,0-0.5-0.224-0.5-0.5v-8c0-0.276,0.224-0.5,0.5-0.5h5c0.827,0,1.5,0.673,1.5,1.5v6	C86,58.327,85.327,59,84.5,59z M80,58h4.5c0.275,0,0.5-0.225,0.5-0.5v-6c0-0.275-0.225-0.5-0.5-0.5H80V58z"/><path fill="#1f212b" d="M66.5,70h-50c-0.276,0-0.5-0.224-0.5-0.5s0.224-0.5,0.5-0.5h50c0.276,0,0.5,0.224,0.5,0.5	S66.776,70,66.5,70z"/><path fill="#1f212b" d="M78.5,70h-7c-0.276,0-0.5-0.224-0.5-0.5s0.224-0.5,0.5-0.5h7c0.276,0,0.5,0.224,0.5,0.5	S78.776,70,78.5,70z"/><path fill="#1f212b" d="M82.5,70h-1c-0.276,0-0.5-0.224-0.5-0.5s0.224-0.5,0.5-0.5h1c0.276,0,0.5,0.224,0.5,0.5	S82.776,70,82.5,70z"/><path fill="#1f212b" d="M85,65H15c-0.553,0-1-0.447-1-1V52.125c0-1.545,0.365-3.091,1.056-4.473l4.05-8.1	C19.275,39.214,19.621,39,20,39h60c0.379,0,0.725,0.214,0.895,0.553l4.05,8.1C85.635,49.034,86,50.58,86,52.125V64	C86,64.553,85.553,65,85,65z M16,63h68V52.125c0-1.235-0.292-2.473-0.845-3.578L79.382,41H20.618l-3.773,7.547	C16.292,49.652,16,50.89,16,52.125V63z"/></svg>