<svg xmlns="http://www.w3.org/2000/svg"  viewBox="0 0 80 80" width="144px" height="144px"><path fill="#dbf2ff" d="M4.5 21.5H75.5V77.5H4.5z"/><path fill="#7496c4" d="M75,22v55H5V22H75 M76,21H4v57h72V21L76,21z"/><path fill="#b5ddf5" d="M5 69H75V77H5z"/><path fill="#8bb7f0" d="M42.5 42.5H65.5V77.5H42.5z"/><path fill="#4e7ab5" d="M65,43v34H43V43H65 M66,42H42v36h24V42L66,42z"/><path fill="#8bb7f0" d="M14.5 42.5H33.5V59.5H14.5z"/><path fill="#4e7ab5" d="M33,43v16H15V43H33 M34,42H14v18h20V42L34,42z"/><path fill="#f78f8f" d="M56,37.5c-4.136,0-7.5-3.364-7.5-7.5c0-0.276-0.224-0.5-0.5-0.5s-0.5,0.224-0.5,0.5 c0,4.136-3.364,7.5-7.5,7.5s-7.5-3.364-7.5-7.5c0-0.276-0.224-0.5-0.5-0.5s-0.5,0.224-0.5,0.5c0,4.136-3.364,7.5-7.5,7.5 s-7.5-3.364-7.5-7.5c0-0.276-0.224-0.5-0.5-0.5s-0.5,0.224-0.5,0.5c0,4.135-3.364,7.5-7.5,7.5c-0.244,0-0.49-0.012-0.738-0.035 C3.47,37.103,0.5,33.673,0.5,29.656v-7.53l5.94-11.035c0.039-0.073,0.06-0.154,0.06-0.237V6c0-1.93,1.57-3.5,3.5-3.5h60 c1.93,0,3.5,1.57,3.5,3.5v4.854c0,0.083,0.021,0.164,0.06,0.237l5.94,11.035v7.53c0,4.017-2.97,7.447-6.762,7.809 c-0.248,0.023-0.494,0.035-0.737,0.035c0,0,0,0-0.001,0c-4.136,0-7.5-3.365-7.5-7.5c0-0.276-0.224-0.5-0.5-0.5s-0.5,0.224-0.5,0.5 C63.5,34.136,60.136,37.5,56,37.5z"/><path fill="#c74343" d="M70,3c1.654,0,3,1.346,3,3v4.854c0,0.165,0.041,0.328,0.119,0.474L79,22.252v7.404 c0,3.762-2.771,6.973-6.309,7.311C72.461,36.989,72.228,37,72,37c-3.86,0-7-3.14-7-7c0-0.552-0.448-1-1-1s-1,0.448-1,1 c0,3.86-3.14,7-7,7s-7-3.14-7-7c0-0.552-0.448-1-1-1s-1,0.448-1,1c0,3.86-3.14,7-7,7s-7-3.14-7-7c0-0.552-0.448-1-1-1 s-1,0.448-1,1c0,3.86-3.14,7-7,7s-7-3.14-7-7c0-0.552-0.448-1-1-1s-1,0.448-1,1c0,3.86-3.14,7-7,7 c-0.229,0-0.461-0.011-0.691-0.033C3.771,36.63,1,33.418,1,29.656v-7.404l5.881-10.924C6.959,11.183,7,11.02,7,10.854V6 c0-1.654,1.346-3,3-3H70 M70,2H10C7.791,2,6,3.791,6,6v4.854L0,22v7.656c0,4.178,3.055,7.91,7.214,8.306 C7.479,37.988,7.741,38,8,38c4.418,0,8-3.582,8-8c0,4.418,3.582,8,8,8s8-3.582,8-8c0,4.418,3.582,8,8,8s8-3.582,8-8 c0,4.418,3.582,8,8,8s8-3.582,8-8c0,4.418,3.582,8,8,8c0.26,0,0.521-0.012,0.786-0.038C76.945,37.566,80,33.835,80,29.656V22 l-6-11.146V6C74,3.791,72.209,2,70,2L70,2z"/><path fill="#c74343" d="M6 10H74V11H6z"/><path fill="#f7a8a8" d="M1.159 22L78.841 22 72.926 11 7.074 11z"/><path fill="#c74343" d="M0 22H80V23H0z"/><path fill="#fff" d="M61.5 59A1.5 1.5 0 1 0 61.5 62A1.5 1.5 0 1 0 61.5 59Z"/></svg>