<svg xmlns="http://www.w3.org/2000/svg" xmlns:xlink="http://www.w3.org/1999/xlink" viewBox="0,0,256,256" width="144px" height="144px" fill-rule="nonzero"><g fill="none" fill-rule="nonzero" stroke="none" stroke-width="1" stroke-linecap="butt" stroke-linejoin="miter" stroke-miterlimit="10" stroke-dasharray="" stroke-dashoffset="0" font-family="none" font-weight="none" font-size="none" text-anchor="none" style="mix-blend-mode: normal"><g transform="scale(2.56,2.56)"><path d="M24,22h52v62h-52z" fill="#f3cbca"></path><rect x="24" y="22" width="52" height="5" fill="#ff3636"></rect><rect x="24" y="76" width="52" height="8" fill="#ff3636"></rect><path d="M58,84v-12c0,-1.105 -0.895,-2 -2,-2h-6h-6c-1.105,0 -2,0.895 -2,2v12z" fill="#78ccd3"></path><path d="M42.5,33.5h5v7h-5zM32.5,33.5h5v7h-5zM52.5,33.5h5v7h-5zM62.5,33.5h5v7h-5zM42.5,45.5h5v7h-5zM32.5,45.5h5v7h-5zM52.5,45.5h5v7h-5zM62.5,45.5h5v7h-5zM42.5,57.5h5v7h-5zM32.5,57.5h5v7h-5zM52.5,57.5h5v7h-5zM62.5,57.5h5v7h-5z" fill="#fefdef"></path><path d="M23,16c-1.657,0 -3,1.343 -3,3c0,1.657 1.343,3 3,3c1.42,0 52.581,0 54,0c1.657,0 3,-1.343 3,-3c0,-1.657 -1.343,-3 -3,-3c-0.601,0 -53.399,0 -54,0z" fill="#78ccd3"></path><path d="M54.667,18h-9.333c-1.284,0 -2.334,-1.05 -2.334,-2.333v-9.334c0,-1.283 1.05,-2.333 2.333,-2.333h9.333c1.284,0 2.334,1.05 2.334,2.333v9.333c0,1.284 -1.05,2.334 -2.333,2.334z" fill="#fefdef"></path><g fill="#1f212b"><path d="M76,85h-52c-0.552,0 -1,-0.448 -1,-1v-62c0,-0.552 0.448,-1 1,-1h52c0.552,0 1,0.448 1,1v62c0,0.552 -0.448,1 -1,1zM25,83h50v-60h-50z"></path><path d="M83,85h-66c-0.552,0 -1,-0.448 -1,-1c0,-0.552 0.448,-1 1,-1h66c0.552,0 1,0.448 1,1c0,0.552 -0.448,1 -1,1z"></path><path d="M75.5,27h-19c-0.276,0 -0.5,-0.224 -0.5,-0.5c0,-0.276 0.224,-0.5 0.5,-0.5h19c0.276,0 0.5,0.224 0.5,0.5c0,0.276 -0.224,0.5 -0.5,0.5zM53.5,27h-6c-0.276,0 -0.5,-0.224 -0.5,-0.5c0,-0.276 0.224,-0.5 0.5,-0.5h6c0.276,0 0.5,0.224 0.5,0.5c0,0.276 -0.224,0.5 -0.5,0.5zM44.5,27h-1c-0.276,0 -0.5,-0.224 -0.5,-0.5c0,-0.276 0.224,-0.5 0.5,-0.5h1c0.276,0 0.5,0.224 0.5,0.5c0,0.276 -0.224,0.5 -0.5,0.5zM40.5,27h-16c-0.276,0 -0.5,-0.224 -0.5,-0.5c0,-0.276 0.224,-0.5 0.5,-0.5h16c0.276,0 0.5,0.224 0.5,0.5c0,0.276 -0.224,0.5 -0.5,0.5z"></path><path d="M67.5,65h-5c-0.276,0 -0.5,-0.224 -0.5,-0.5v-7c0,-0.276 0.224,-0.5 0.5,-0.5h5c0.276,0 0.5,0.224 0.5,0.5v7c0,0.276 -0.224,0.5 -0.5,0.5zM63,64h4v-6h-4zM57.5,65h-5c-0.276,0 -0.5,-0.224 -0.5,-0.5v-7c0,-0.276 0.224,-0.5 0.5,-0.5h5c0.276,0 0.5,0.224 0.5,0.5v7c0,0.276 -0.224,0.5 -0.5,0.5zM53,64h4v-6h-4zM47.5,65h-5c-0.276,0 -0.5,-0.224 -0.5,-0.5v-7c0,-0.276 0.224,-0.5 0.5,-0.5h5c0.276,0 0.5,0.224 0.5,0.5v7c0,0.276 -0.224,0.5 -0.5,0.5zM43,64h4v-6h-4zM37.5,65h-5c-0.276,0 -0.5,-0.224 -0.5,-0.5v-7c0,-0.276 0.224,-0.5 0.5,-0.5h5c0.276,0 0.5,0.224 0.5,0.5v7c0,0.276 -0.224,0.5 -0.5,0.5zM33,64h4v-6h-4zM67.5,53h-5c-0.276,0 -0.5,-0.224 -0.5,-0.5v-7c0,-0.276 0.224,-0.5 0.5,-0.5h5c0.276,0 0.5,0.224 0.5,0.5v7c0,0.276 -0.224,0.5 -0.5,0.5zM63,52h4v-6h-4zM57.5,53h-5c-0.276,0 -0.5,-0.224 -0.5,-0.5v-7c0,-0.276 0.224,-0.5 0.5,-0.5h5c0.276,0 0.5,0.224 0.5,0.5v7c0,0.276 -0.224,0.5 -0.5,0.5zM53,52h4v-6h-4zM47.5,53h-5c-0.276,0 -0.5,-0.224 -0.5,-0.5v-7c0,-0.276 0.224,-0.5 0.5,-0.5h5c0.276,0 0.5,0.224 0.5,0.5v7c0,0.276 -0.224,0.5 -0.5,0.5zM43,52h4v-6h-4zM37.5,53h-5c-0.276,0 -0.5,-0.224 -0.5,-0.5v-7c0,-0.276 0.224,-0.5 0.5,-0.5h5c0.276,0 0.5,0.224 0.5,0.5v7c0,0.276 -0.224,0.5 -0.5,0.5zM33,52h4v-6h-4zM67.5,41h-5c-0.276,0 -0.5,-0.224 -0.5,-0.5v-7c0,-0.276 0.224,-0.5 0.5,-0.5h5c0.276,0 0.5,0.224 0.5,0.5v7c0,0.276 -0.224,0.5 -0.5,0.5zM63,40h4v-6h-4zM57.5,41h-5c-0.276,0 -0.5,-0.224 -0.5,-0.5v-7c0,-0.276 0.224,-0.5 0.5,-0.5h5c0.276,0 0.5,0.224 0.5,0.5v7c0,0.276 -0.224,0.5 -0.5,0.5zM53,40h4v-6h-4zM47.5,41h-5c-0.276,0 -0.5,-0.224 -0.5,-0.5v-7c0,-0.276 0.224,-0.5 0.5,-0.5h5c0.276,0 0.5,0.224 0.5,0.5v7c0,0.276 -0.224,0.5 -0.5,0.5zM43,40h4v-6h-4zM37.5,41h-5c-0.276,0 -0.5,-0.224 -0.5,-0.5v-7c0,-0.276 0.224,-0.5 0.5,-0.5h5c0.276,0 0.5,0.224 0.5,0.5v7c0,0.276 -0.224,0.5 -0.5,0.5zM33,40h4v-6h-4z"></path><path d="M42,85c-0.552,0 -1,-0.448 -1,-1v-12c0,-1.654 1.346,-3 3,-3h6c0.552,0 1,0.448 1,1c0,0.552 -0.448,1 -1,1h-6c-0.551,0 -1,0.449 -1,1v12c0,0.552 -0.448,1 -1,1z"></path><path d="M58,85c-0.552,0 -1,-0.448 -1,-1v-12c0,-0.551 -0.449,-1 -1,-1h-6c-0.552,0 -1,-0.448 -1,-1c0,-0.552 0.448,-1 1,-1h6c1.654,0 3,1.346 3,3v12c0,0.552 -0.448,1 -1,1z"></path><path d="M50,84c-0.276,0 -0.5,-0.224 -0.5,-0.5v-13.5c0,-0.276 0.224,-0.5 0.5,-0.5c0.276,0 0.5,0.224 0.5,0.5v13.5c0,0.276 -0.224,0.5 -0.5,0.5z"></path><path d="M27.5,77h-3c-0.276,0 -0.5,-0.224 -0.5,-0.5c0,-0.276 0.224,-0.5 0.5,-0.5h3c0.276,0 0.5,0.224 0.5,0.5c0,0.276 -0.224,0.5 -0.5,0.5z"></path><path d="M34.5,77h-4c-0.276,0 -0.5,-0.224 -0.5,-0.5c0,-0.276 0.224,-0.5 0.5,-0.5h4c0.276,0 0.5,0.224 0.5,0.5c0,0.276 -0.224,0.5 -0.5,0.5z"></path><path d="M41.5,77h-4c-0.276,0 -0.5,-0.224 -0.5,-0.5c0,-0.276 0.224,-0.5 0.5,-0.5h4c0.276,0 0.5,0.224 0.5,0.5c0,0.276 -0.224,0.5 -0.5,0.5z"></path><path d="M66.5,77h-8c-0.276,0 -0.5,-0.224 -0.5,-0.5c0,-0.276 0.224,-0.5 0.5,-0.5h8c0.276,0 0.5,0.224 0.5,0.5c0,0.276 -0.224,0.5 -0.5,0.5z"></path><path d="M70.5,77h-2c-0.276,0 -0.5,-0.224 -0.5,-0.5c0,-0.276 0.224,-0.5 0.5,-0.5h2c0.276,0 0.5,0.224 0.5,0.5c0,0.276 -0.224,0.5 -0.5,0.5z"></path><path d="M75.5,77h-3c-0.276,0 -0.5,-0.224 -0.5,-0.5c0,-0.276 0.224,-0.5 0.5,-0.5h3c0.276,0 0.5,0.224 0.5,0.5c0,0.276 -0.224,0.5 -0.5,0.5z"></path><path d="M77,23h-54c-2.206,0 -4,-1.794 -4,-4c0,-2.206 1.794,-4 4,-4h20c0.552,0 1,0.448 1,1c0,0.552 -0.448,1 -1,1h-20c-1.103,0 -2,0.897 -2,2c0,1.103 0.897,2 2,2h54c1.103,0 2,-0.897 2,-2c0,-1.103 -0.897,-2 -2,-2h-20c-0.552,0 -1,-0.448 -1,-1c0,-0.552 0.448,-1 1,-1h20c2.206,0 4,1.794 4,4c0,2.206 -1.794,4 -4,4z"></path><path d="M54.667,19h-9.333c-1.838,0 -3.334,-1.496 -3.334,-3.333v-9.334c0,-1.837 1.496,-3.333 3.333,-3.333h9.333c1.838,0 3.334,1.496 3.334,3.333v9.333c0,1.838 -1.496,3.334 -3.333,3.334zM45.333,5c-0.735,0 -1.333,0.598 -1.333,1.333v9.333c0,0.736 0.598,1.334 1.333,1.334h9.333c0.736,0 1.334,-0.598 1.334,-1.333v-9.334c0,-0.735 -0.598,-1.333 -1.333,-1.333z"></path><path d="M47.5,12c-0.276,0 -0.5,-0.224 -0.5,-0.5v-4c0,-0.276 0.224,-0.5 0.5,-0.5c0.276,0 0.5,0.224 0.5,0.5v4c0,0.276 -0.224,0.5 -0.5,0.5z"></path><path d="M52.5,12c-0.276,0 -0.5,-0.224 -0.5,-0.5v-4c0,-0.276 0.224,-0.5 0.5,-0.5c0.276,0 0.5,0.224 0.5,0.5v4c0,0.276 -0.224,0.5 -0.5,0.5z"></path><path d="M52.5,15c-0.276,0 -0.5,-0.224 -0.5,-0.5v-3.5h-4v3.5c0,0.276 -0.224,0.5 -0.5,0.5c-0.276,0 -0.5,-0.224 -0.5,-0.5v-4c0,-0.276 0.224,-0.5 0.5,-0.5h5c0.276,0 0.5,0.224 0.5,0.5v4c0,0.276 -0.224,0.5 -0.5,0.5z"></path><path d="M30,17c-0.552,0 -1,-0.448 -1,-1v-10c0,-0.552 0.448,-1 1,-1c0.552,0 1,0.448 1,1v10c0,0.552 -0.448,1 -1,1z"></path><path d="M36,17c-0.552,0 -1,-0.448 -1,-1v-5c0,-0.552 0.448,-1 1,-1c0.552,0 1,0.448 1,1v5c0,0.552 -0.448,1 -1,1z"></path></g></g></g></svg>